<?xml version="1.0" encoding="UTF-8"?>
<!DOCTYPE svg PUBLIC "-//W3C//DTD SVG 1.1//EN" "http://www.w3.org/Graphics/SVG/1.1/DTD/svg11.dtd">
<svg xmlns="http://www.w3.org/2000/svg" version="1.1" width="91px" height="63px" style="shape-rendering:geometricPrecision; text-rendering:geometricPrecision; image-rendering:optimizeQuality; fill-rule:evenodd; clip-rule:evenodd" xmlns:xlink="http://www.w3.org/1999/xlink">
<g><path style="opacity:1" fill="#fefefe" d="M -0.5,-0.5 C 29.8333,-0.5 60.1667,-0.5 90.5,-0.5C 90.5,20.5 90.5,41.5 90.5,62.5C 60.1667,62.5 29.8333,62.5 -0.5,62.5C -0.5,41.5 -0.5,20.5 -0.5,-0.5 Z"/></g>
<g><path style="opacity:1" fill="#2696a2" d="M 19.5,15.5 C 21.5,15.5 23.5,15.5 25.5,15.5C 25.5,17.1667 25.5,18.8333 25.5,20.5C 24.1667,20.5 22.8333,20.5 21.5,20.5C 21.9789,24.4344 21.3122,28.1011 19.5,31.5C 21.3249,34.8768 21.9916,38.5435 21.5,42.5C 22.8333,42.5 24.1667,42.5 25.5,42.5C 25.5,44.1667 25.5,45.8333 25.5,47.5C 22.7276,47.78 20.2276,47.1134 18,45.5C 17.6667,41.8333 17.3333,38.1667 17,34.5C 15.9887,33.6634 14.8221,33.33 13.5,33.5C 13.373,30.755 14.5397,28.755 17,27.5C 16.984,23.205 17.8174,19.205 19.5,15.5 Z"/></g>
<g><path style="opacity:1" fill="#99c344" d="M 60.5,16.5 C 60.8168,20.7016 60.4834,24.7016 59.5,28.5C 58.5768,27.6971 57.5768,27.5304 56.5,28C 55.4147,30.172 54.0814,32.172 52.5,34C 48.8333,34.3333 45.1667,34.6667 41.5,35C 38.9581,39.2515 36.2914,43.4181 33.5,47.5C 32.354,46.8551 31.354,46.0217 30.5,45C 33.1667,40.3333 35.8333,35.6667 38.5,31C 42.5408,30.8265 46.5408,30.3265 50.5,29.5C 53.3912,26.6597 53.0578,24.493 49.5,23C 52.8924,20.3063 56.5591,18.1396 60.5,16.5 Z"/></g>
<g><path style="opacity:1" fill="#2695a1" d="M 66.5,15.5 C 69.2724,15.22 71.7724,15.8866 74,17.5C 74.3333,21.1667 74.6667,24.8333 75,28.5C 76.0113,29.3366 77.1779,29.67 78.5,29.5C 78.7725,31.9582 77.7725,33.6249 75.5,34.5C 74.6747,38.1224 74.1747,41.789 74,45.5C 71.8646,47.2785 69.3646,47.9452 66.5,47.5C 66.5,45.8333 66.5,44.1667 66.5,42.5C 67.8333,42.5 69.1667,42.5 70.5,42.5C 70.3354,39.4816 70.502,36.4816 71,33.5C 72.6149,32.344 72.6149,31.0107 71,29.5C 70.502,26.5184 70.3354,23.5184 70.5,20.5C 69.1667,20.5 67.8333,20.5 66.5,20.5C 66.5,18.8333 66.5,17.1667 66.5,15.5 Z"/></g>
<g><path style="opacity:1" fill="#c6dd97" d="M 59.5,28.5 C 60.4834,24.7016 60.8168,20.7016 60.5,16.5C 61.2386,17.7073 61.5719,19.7073 61.5,22.5C 61.1667,24.8333 60.8333,27.1667 60.5,29.5C 59.8933,29.3764 59.56,29.0431 59.5,28.5 Z"/></g>
</svg>
