<?xml version="1.0" standalone="no"?>
<!DOCTYPE svg PUBLIC "-//W3C//DTD SVG 20010904//EN"
 "http://www.w3.org/TR/2001/REC-SVG-20010904/DTD/svg10.dtd">
<svg version="1.0" xmlns="http://www.w3.org/2000/svg"
 width="95.000000pt" height="72.000000pt" viewBox="0 0 95.000000 72.000000"
 preserveAspectRatio="xMidYMid meet">

<g transform="translate(0.000000,72.000000) scale(0.100000,-0.100000)"
fill="#000000" stroke="none">
<path d="M212 468 c-7 -7 -12 -34 -12 -61 0 -40 -3 -50 -20 -54 -11 -3 -20
-13 -20 -23 0 -10 9 -20 20 -23 17 -4 20 -14 20 -54 0 -27 5 -54 12 -61 17
-17 58 -15 58 3 0 8 -6 15 -14 15 -18 0 -26 22 -26 71 0 24 -5 39 -12 39 -9 0
-9 3 0 12 7 7 12 31 12 55 0 32 5 46 20 55 11 7 20 18 20 25 0 16 -42 17 -58
1z"/>
<path d="M700 466 c0 -8 7 -16 15 -20 10 -3 15 -19 15 -45 0 -24 7 -46 17 -56
13 -13 14 -18 3 -25 -7 -4 -15 -31 -18 -59 -3 -34 -9 -51 -18 -51 -8 0 -14 -7
-14 -15 0 -18 41 -20 58 -3 7 7 12 34 12 61 0 40 3 50 20 54 11 3 20 11 20 19
0 7 -9 18 -20 24 -16 8 -20 21 -20 58 0 27 -5 53 -12 60 -17 17 -58 15 -58 -2z"/>
</g>
</svg>
