<?xml version="1.0" standalone="no"?>
<!DOCTYPE svg PUBLIC "-//W3C//DTD SVG 20010904//EN"
 "http://www.w3.org/TR/2001/REC-SVG-20010904/DTD/svg10.dtd">
<svg version="1.0" xmlns="http://www.w3.org/2000/svg"
 width="123.000000pt" height="33.000000pt" viewBox="0 0 123.000000 33.000000"
 preserveAspectRatio="xMidYMid meet">

<g transform="translate(0.000000,33.000000) scale(0.100000,-0.100000)"
fill="#008D9C" stroke="#008D9C" stroke-width="20">
<path d="M60 171 c0 -74 4 -121 10 -121 6 0 10 23 10 50 0 57 12 68 57 53 17
-6 38 -27 53 -53 14 -24 31 -45 38 -48 12 -4 -19 58 -45 89 -11 14 -10 17 12
27 20 9 25 19 25 51 0 51 -18 64 -96 69 l-64 4 0 -121z m132 82 c42 -38 8 -83
-64 -83 l-48 0 0 50 0 50 47 0 c29 0 53 -6 65 -17z"/>
<path d="M290 170 l0 -120 70 0 c40 0 70 4 70 10 0 6 -27 10 -60 10 l-60 0 0
110 c0 67 -4 110 -10 110 -6 0 -10 -47 -10 -120z"/>
<path d="M470 170 l0 -120 70 0 c40 0 70 4 70 10 0 6 -27 10 -60 10 l-60 0 0
45 0 45 60 0 c33 0 60 4 60 10 0 6 -27 10 -60 10 l-60 0 0 45 0 45 60 0 c33 0
60 4 60 10 0 6 -30 10 -70 10 l-70 0 0 -120z"/>
<path d="M670 170 c0 -73 4 -120 10 -120 6 0 10 25 10 55 l0 55 55 0 c30 0 55
5 55 10 0 6 -25 10 -55 10 l-55 0 0 45 0 45 60 0 c33 0 60 4 60 10 0 6 -30 10
-70 10 l-70 0 0 -120z"/>
<path d="M975 203 c-20 -49 -43 -103 -51 -120 -19 -45 -2 -42 19 2 l17 36 62
-3 c64 -3 71 -8 91 -63 3 -5 7 -7 11 -4 7 7 -93 239 -104 239 -4 0 -24 -39
-45 -87z m96 -50 c8 -22 6 -23 -46 -23 -64 0 -65 3 -29 80 l26 55 20 -45 c11
-25 24 -55 29 -67z"/>
<path d="M1180 170 c0 -73 4 -120 10 -120 6 0 10 47 10 120 0 73 -4 120 -10
120 -6 0 -10 -47 -10 -120z"/>
<path d="M840 65 c0 -8 5 -15 10 -15 6 0 10 7 10 15 0 8 -4 15 -10 15 -5 0
-10 -7 -10 -15z"/>
</g>
</svg>
